<svg t="1697710480882" class="icon" viewBox="0 0 1024 1024" version="1.1" xmlns="http://www.w3.org/2000/svg" p-id="13581" width="200" height="200"><path d="M136.533333 573.44m94.208 0l0 0q94.208 0 94.208 94.208l0 62.805333q0 94.208-94.208 94.208l0 0q-94.208 0-94.208-94.208l0-62.805333q0-94.208 94.208-94.208Z" fill="#FFDFA9" p-id="13582"></path><path d="M701.781333 573.44m94.208 0l0 0q94.208 0 94.208 94.208l0 62.805333q0 94.208-94.208 94.208l0 0q-94.208 0-94.208-94.208l0-62.805333q0-94.208 94.208-94.208Z" fill="#FFDFA9" p-id="13583"></path><path d="M230.741333 573.44a94.208 94.208 0 0 1 94.208 94.208v62.805333a94.208 94.208 0 0 1-188.416 0v-62.805333a94.208 94.208 0 0 1 94.208-94.208z m0 26.999467c-35.498667 0-64.580267 27.5456-67.037866 62.395733l-0.170667 4.8128v62.805333a67.208533 67.208533 0 0 0 134.2464 4.778667l0.170667-4.778667v-62.805333a67.208533 67.208533 0 0 0-67.208534-67.208533zM795.989333 573.44a94.208 94.208 0 0 1 94.208 94.208v62.805333a94.208 94.208 0 0 1-188.416 0v-62.805333a94.208 94.208 0 0 1 94.208-94.208z m0 26.999467c-35.498667 0-64.580267 27.5456-67.037866 62.395733l-0.170667 4.8128v62.805333a67.208533 67.208533 0 0 0 134.2464 4.778667l0.170667-4.778667v-62.805333a67.208533 67.208533 0 0 0-67.208534-67.208533zM513.365333 102.4a125.610667 125.610667 0 1 1 0 251.221333 125.610667 125.610667 0 0 1 0-251.221333z m0 26.999467a98.6112 98.6112 0 1 0 0 197.2224 98.6112 98.6112 0 0 0 0-197.2224z" fill="#333333" p-id="13584"></path><path d="M513.365333 165.205333a314.026667 314.026667 0 0 1 314.026667 314.026667v276.0704a163.566933 163.566933 0 0 1-163.566933 163.566933H362.9056a163.566933 163.566933 0 0 1-163.566933-163.566933V479.232a314.026667 314.026667 0 0 1 314.026666-314.026667z" fill="#F3F0DB" p-id="13585"></path><path d="M827.392 479.232v276.0704a163.566933 163.566933 0 0 1-163.566933 163.566933H362.9056a163.498667 163.498667 0 0 1-142.7456-83.626666c23.6544 13.277867 50.8928 20.821333 79.940267 20.821333h300.919466a163.566933 163.566933 0 0 0 163.566934-163.566933V416.426667a312.661333 312.661333 0 0 0-62.737067-188.381867 313.4464 313.4464 0 0 1 125.5424 251.1872z" fill="#DBD4B6" p-id="13586"></path><path d="M513.365333 165.205333a314.026667 314.026667 0 0 1 314.026667 314.026667v282.624a157.013333 157.013333 0 0 1-157.013333 157.013333h-314.026667a157.013333 157.013333 0 0 1-157.013333-157.013333v-282.624a314.026667 314.026667 0 0 1 314.026666-314.026667z m0 26.999467a287.0272 287.0272 0 0 0-286.890666 278.698667l-0.136534 8.328533v282.624a130.013867 130.013867 0 0 0 123.528534 129.8432l6.485333 0.170667h314.026667a130.013867 130.013867 0 0 0 129.8432-123.528534l0.170666-6.485333v-282.624a287.0272 287.0272 0 0 0-287.0272-287.0272z" fill="#333333" p-id="13587"></path><path d="M372.053333 808.96m-47.104 0a47.104 47.104 0 1 0 94.208 0 47.104 47.104 0 1 0-94.208 0Z" fill="#FFFFFF" p-id="13588"></path><path d="M513.365333 808.96m-47.104 0a47.104 47.104 0 1 0 94.208 0 47.104 47.104 0 1 0-94.208 0Z" fill="#FFFFFF" p-id="13589"></path><path d="M654.677333 808.96m-47.104 0a47.104 47.104 0 1 0 94.208 0 47.104 47.104 0 1 0-94.208 0Z" fill="#FFFFFF" p-id="13590"></path><path d="M372.053333 761.856a47.104 47.104 0 1 1 0 94.208 47.104 47.104 0 0 1 0-94.208z m0 26.999467a20.104533 20.104533 0 1 0 0 40.209066 20.104533 20.104533 0 0 0 0-40.209066zM513.365333 761.856a47.104 47.104 0 1 1 0 94.208 47.104 47.104 0 0 1 0-94.208z m0 26.999467a20.104533 20.104533 0 1 0 0 40.209066 20.104533 20.104533 0 0 0 0-40.209066zM654.677333 761.856a47.104 47.104 0 1 1 0 94.208 47.104 47.104 0 0 1 0-94.208z m0 26.999467a20.104533 20.104533 0 1 0 0 40.209066 20.104533 20.104533 0 0 0 0-40.209066z" fill="#333333" p-id="13591"></path><path d="M513.365333 479.232m-219.818666 0a219.818667 219.818667 0 1 0 439.637333 0 219.818667 219.818667 0 1 0-439.637333 0Z" fill="#DBD4B6" p-id="13592"></path><path d="M513.365333 479.232m-188.416 0a188.416 188.416 0 1 0 376.832 0 188.416 188.416 0 1 0-376.832 0Z" fill="#D0E5FF" p-id="13593"></path><path d="M513.365333 290.816a188.416 188.416 0 1 1 0 376.832 188.416 188.416 0 0 1 0-376.832z m0 26.999467a161.416533 161.416533 0 1 0 0 322.833066 161.416533 161.416533 0 0 0 0-322.833066z" fill="#333333" p-id="13594"></path><path d="M335.9744 278.903467a15.701333 15.701333 0 1 1 20.48 23.825066C303.616 348.16 277.845333 395.093333 277.845333 443.733333a15.701333 15.701333 0 1 1-31.402666 0c0-58.7776 30.276267-113.834667 89.531733-164.864z" fill="#FFFDF1" p-id="13595"></path><path d="M413.696 398.301867a15.701333 15.701333 0 0 1 18.909867 25.053866c-12.1856 9.216-19.2512 24.405333-20.855467 46.7968a15.701333 15.701333 0 0 1-31.3344-2.218666c2.218667-30.856533 13.175467-54.4768 33.245867-69.632zM636.279467 430.08a15.701333 15.701333 0 1 0-24.746667 19.285333c9.386667 12.049067 12.288 28.5696 8.021333 50.619734a15.701333 15.701333 0 0 0 30.8224 5.9392c5.870933-30.378667 1.365333-56.0128-14.097066-75.844267z" fill="#FFFFFF" p-id="13596"></path></svg>
