<svg xml:space="preserve" style="enable-background:new 0 0 1024 1024;" viewBox="0 0 1024 1024" y="0px" x="0px" xmlns:xlink="http://www.w3.org/1999/xlink" xmlns="http://www.w3.org/2000/svg" id="图层_1" version="1.1">
<style type="text/css">
	.st0{fill:#050928;}
	.st1{fill:#FEFEFE;}
	.st2{fill:#3B4B6E;}
	.st3{fill:#FEE8D6;}
	.st4{fill:#FF4F50;}
	.st5{fill:#4D6186;}
	.st6{fill:#99D5FF;}
	.st7{fill:#A63956;}
</style>
    <g>
	<path d="M907.2,808.4l-0.5,22.3c0,1.7-1.5,3.1-3.2,3.1c-37.2-0.2-65.9,0-110.4,1.6c-28.2,1-60-1.6-84.1-1.6
		c-194.4,0-390,0-586.8,0c-3,0-5.5-2.4-5.5-5.4l-0.1-19.5l-0.5-12c0-0.8-0.4-1.5-1.1-2c-14.3-10.5-23.9-20-26.5-38.1
		c-7.9-55.4-14.1-101.3-18.6-137.5c-2-16.1-2.4-32.3,3.6-48.3c9.7-25.6,32.6-42,60.5-42.2c3,0,5.4-2.4,5.4-5.4c0,0,0,0,0-0.1
		c-0.5-24.4-0.7-48.3-0.7-71.7c0.1-41.2,35.2-71,75.2-70.9c36.6,0,73.2-0.1,109.9-0.5c1.7,0,1.9-0.6,0.6-1.7l-2.8-2.4
		c-0.5-0.4-1.1-0.6-1.7-0.5c-34.9,6.7-60.5-28.9-36.4-58c0.5-0.6,0.6-1.2,0.4-2c-8.8-25.9-7-50.9,5.5-75c0.4-0.8,0.3-1.4-0.4-2
		c-3.4-3.1-6.8-6-8-10.4c-2.9-10.5,5.9-19.5,16.6-17.2c1,0.2,1.3-0.2,1.1-1.1c-5.5-20.1,19.4-28.6,26.6-9.1c0.3,0.9,0.8,1,1.5,0.4
		c26.3-24.4,57.2-32.3,92.6-23.8c0.7,0.2,1.5,0.1,2.2-0.1c9.1-2.6,16.6-6.8,23.9,1.8c5.5,6.4,4.8,14.2-0.7,20.4
		c-1.1,1.2-1,2.3,0.4,3.2c21.1,13.7,36.9,32.3,47.2,55.9c4,9.1,8.3,21.4,1.8,29.2c-2.4,2.8-6.2,4-9.6,5.9c-0.7,0.4-1.1,1.1-1.1,1.9
		c-0.3,8.9-7.8,10.7-13.5,14.9c-0.5,0.4-0.8,1-0.8,1.6l-1,20.2c0,0.9,0.1,1.7,0.6,2.5c9.1,16.2,7.1,30.9-6,44
		c-0.4,0.4-0.4,1.2,0,1.6c0.2,0.2,0.5,0.3,0.8,0.3h44.6c1.4,0,2.5-1.1,2.6-2.4c1.7-25.5,5.7-50.9,12-76.3
		C555.3,171.3,724.4,188,746.7,315c3.6,20.8,5.7,41.7,6.2,62.6c0,1.5,1.2,2.6,2.6,2.8c28.2,2.9,57.1-4.7,83.9,6.3
		c57.1,23.6,44.7,85,45.2,133.6c0,3.1,0.9,5.5,2.5,7.3c0.6,0.7,1.3,1,2.2,1c45-0.3,70.9,39.1,65.8,81.7
		c-4.9,41.3-10.1,82.6-15.6,123.8c-3,22.8-3.5,34.7-16.8,49.1C914.9,791.7,904,792.7,907.2,808.4z M330.1,214.7
		c-4.5,2.6-10.1,3.4-16.8,2.3l-1.1-13.6c0-0.4-0.2-0.6-0.6-0.6c-0.2,0-0.5,0-0.7,0c-0.4,0-0.7,0.3-0.7,0.7c0,0,0,0,0,0l0.9,18.2
		l-1.7,5.8c-5.4-0.4-10.5-1.9-15.3-4.6c-0.5-0.3-1-0.1-1.3,0.4c-0.1,0.1-0.1,0.3-0.1,0.4c0,0.8,0,1.4,0.3,2c0.3,0.6,1,1.1,2.2,1.6
		c5.2,2.2,9,5.6,11.6,10.3c-0.5,0.2-0.8,1.2-0.9,2.8c-8.2,8.6-13,19.7-14.2,33.2c-2.7,11.8-1.3,23.9,4,36.1c0.3,0.7,1,1.3,1.7,1.5
		c10.8,2.5,17.9,3.1,24.8,12c1.4,1.8,2.5,1.6,3.1-0.6c3.7-12.4,7.3-24.2,10.8-35.5c2.9-9.3,9.8-10,18.4-7.2
		c13.9,4.5,27.9,8,41.9,10.5c1.5,0.3,3-0.8,3.3-2.3c1-5.7,1.9-15.4,11-11.3c6.9,3.1,23.8,9.9,50.6,20.2c3.1,1.2,6.1,1.1,8.9-0.2
		c0.7-0.3,1.2-0.9,1.4-1.7l2.6-10.4c0.2-0.8,0.7-1.3,1.4-1.6l8.1-3.3c0.8-0.3,1.3-1.1,1.3-1.9c0-4.4-0.9-8.6-2.7-12.5
		c-10.4-25.1-27.5-44.3-51.3-57.6l-2.6-9.7l7.9-8.5c1-1.1,1-2.8-0.1-3.8c-0.9-0.9-2.3-1-3.3-0.3c-5.2,3.3-9.9,4.2-16.3,2.8
		C383.2,181.6,354.3,190.3,330.1,214.7z M534.6,305.9c-9.7,38.1-13.5,77.4-11.3,117.9c0.8,14.6,18.4,10.6,26.9,10.6
		c0.7,0,1.3-0.6,1.3-1.3c0,0,0-0.1,0-0.1l-1.2-16.3c-0.1-0.9-0.4-1.6-1-2.3c-15.1-15.6-7.7-25.5-7-43.5c0.9-23.9,1.5-53.2,8.3-76
		c0.2-0.8,0.7-1.3,1.5-1.6c2.8-1,5.4-0.7,8,0.9c0.5,0.4,0.8,0.9,0.8,1.5l-0.8,23.2c0,1.1,0.8,1.9,1.9,2c0,0,0,0,0,0h21.8
		c1.2,0,2.2-0.9,2.4-2.1l2.5-23.4c0.1-1.2,0.8-1.9,1.9-2.2c3.1-0.8,5.9-0.4,8.5,1.5c0.6,0.4,0.9,1.1,0.9,1.7V319
		c0,0.8,0.6,1.4,1.4,1.4l22.2,0.4c1.7,0,3-1.3,3.1-2.9l1.1-20.9c0-0.9,0.5-1.7,1.2-2.2c3-2.1,6.1-2.3,9.4-0.6c0.7,0.3,1.1,1,1.1,1.8
		l0.4,23.2c0,1.2,0.6,1.8,1.8,1.7l21.6-0.6c1,0,1.7-0.8,1.8-1.7l1.4-23.8c0.1-1,0.6-1.5,1.6-1.5l7.4,0.1c1.2,0,2.2,1,2.2,2.2
		c1.5,35.9,0.6,71.7-2.7,107.5c-0.9,9.9-2.5,19.7-4.8,29.6c-0.5,2.1,0.3,3.1,2.5,3l22.9-1.2c2.1-0.1,3.8-1.6,4.2-3.7
		c5.1-28.5,5.1-58.1,5.3-87.2c0-2.3,1.9-4.1,4.2-4.1c0.1,0,0.2,0,0.3,0l4.9,0.4c0.9,0.1,1.7,0.8,1.8,1.8c2.6,29.8,1.8,59.4-2.4,89
		c-0.4,3,0.9,4.4,3.9,4.1l15.2-1.4c3.5-0.3,6.3-3.1,6.6-6.6c3.1-36.5,1.3-73.1-5.4-109.7c-5.8-32.1-20.1-56.4-42.6-73
		c-14.2-10.8-29.3-17.2-45.2-19.3C590.7,217.5,547.3,252.4,534.6,305.9z M323.6,359.7c9.3,9.6,18.6,16.3,27.7,20.1l21.9,5.3
		c0.3,7.3-0.8,12.7-3.5,16.4c-8.4,2.4-7,5.3,4.3,8.8c9.2,2.9,18.3,0.9,25.8-5.1c0.8-0.6,0.9-1.7,0.3-2.4c-0.2-0.3-0.5-0.4-0.8-0.6
		l-5.8-2.1c-1.2-4.3-1.3-9.1-0.4-14.5c17.4-1.4,35.3-3.1,51.6-9.6c13.3-6,25.2-21.1,12.5-34.9l0.2-30.8c0-0.9-0.4-1.6-1.3-1.9
		l-22.8-8.5c-8-4.7-15.1-7.2-21.3-7.3c-3.7,7.3-8.7,10.5-14.9,9.7c-16.5-2.2-32.2-6.1-47.2-11.5c-1.2-0.4-2,0-2.4,1.2
		c-5.8,18.2-10.7,34.5-14.8,48.8c-0.9,3.2-2.1,5.4-3.7,6.8c-1.9,1.7-4.8,1.5-6.5-0.5c-0.3-0.3-0.5-0.6-0.6-1c-2.5-5-5-9.6-7.5-13.8
		c-11.9-19.7-35.7-1.5-25.3,18.4C296.3,364.7,307.8,367.6,323.6,359.7z M554.8,378c-6.5,17.3-1.7,28.3,14.3,33
		c19.9,4.4,40.2,6.8,60.8,6.9c-1.6,5.2-5.9,15.5,0.1,19c4.6,2.7,9.3,2.8,13.8,0.4c0.7-0.4,1.1-1.1,1.1-1.8l0-18.5l8.9-3l6.9-1.7
		c0.9-0.2,1.4-0.8,1.4-1.7l2.4-31.3l1.4-42.5c0.1-2.6-1.2-3.9-3.8-3.9c-13.2,0-25.3-1.9-39-0.9c-12.4,0.9-25.4-1.1-36.7-0.4
		c-8.1,0.5-16,0.9-23.9,1.3c-2.9,0.1-5.2,2.4-5.4,5.4L554.8,378z M313.6,393.9l-14.1-0.5c-25.4,0-50.8,0-76,0
		c-14.7,0-25.4,1.2-32.3,3.5c-17.6,6-29.9,18.6-36.9,37.7c-2.3,7.5-3.2,15.5-2.7,24.1c0,0.4,0.4,0.7,0.8,0.7c0.3,0,0.5-0.2,0.6-0.4
		c25.1-44.3,67.4-39.3,109.4-27.5l21.5,3.8l13.5,0.4c0.9,0,1.7-0.4,2.1-1.2c8.7-17,21.1-30.5,37.3-40.6c1.4-0.9,1.3-1.3-0.4-1.2
		L313.6,393.9z M466.6,426.3c14.3,27.1,19.3,60.9,21.5,91.7c0.3,3.7,0.2,8.9-0.2,15.4c-2.3,7.2-5.6,12.9-9.9,17.3
		c-0.6,0.5-0.8,1.3-0.7,2.1c3,21.1,0.3,41.5-8,61.1c-0.3,0.7,0,1.4,0.7,1.7c0.2,0.1,0.3,0.1,0.5,0.1l27.9,0c0.4,0,0.6-0.3,0.6-0.7
		c0-0.2-0.1-0.4-0.3-0.5c-17.2-9.7-20.2-39.7,3.5-42.6c5.8-0.7,13.1,1.7,19.9,1.7c0.9,0,1.7-0.2,2.4-0.7c9.5-5.8,19.8-9.5,30.9-11
		c1.1-0.2,1.3-0.7,0.7-1.5c-5.7-8-8.3-16.5-8.1-25.5c0.7-11.9,2.6-23.2,5.7-34c5.8-18.6,13.4-36.7,22.8-54c0.3-0.5,0.1-1.1-0.4-1.4
		c-0.2-0.1-0.4-0.1-0.7-0.1c-5,1-9.4,0.1-13.5-2.8c-0.7-0.5-1.3-0.5-2,0.1c-8.4,7.1-25.4,4.5-35.1,3.1
		c-16.7-7.5-15.8-28.9-16.1-48.1c0-2.5-1.7-3.9-5-4.2l-50.9-0.2l-22.1,0.5c-1.5,0-1.6,0.4-0.2,1.1
		C445.6,402.3,457.7,412.7,466.6,426.3z M744.2,442.4c-14.1,4.8-26.6,5.7-37.5,2.6c-2.5-0.7-4.5-0.6-5.9,0.2c-1.4,0.8-1.8,2-1.3,3.6
		l11.3,33.9l8.7,38.8c3.4,15.4,1.3,29.4-6.5,41.9c-0.2,0.4-0.1,0.9,0.3,1.2c0.2,0.2,0.6,0.2,0.8,0c0.2-0.1,0.5-0.2,0.7-0.3
		c0.3-0.1,0.6-0.3,0.7-0.6l24.1-50.5c24.8-30,54.4,8.9,80.8,8.4c9.4-0.2,18.2-0.1,26.5,0.2c7.3,2.4,12,6.3,14.3,11.8
		c0.4,0.9,1,1.1,1.8,0.6l6.9-4.3c0.7-0.4,1.1-1.1,1.1-1.9l1.1-16.9l-0.3-33.4c2.1-36.1-3.5-68.4-40.4-81.1
		c-19.3-6.6-49.6-3.5-71.4-3.2c-2.4-0.5-4.4-0.4-5.8,0.1c-0.8,0.3-1.3,1.1-1.2,2C754.8,415.1,751.8,430.6,744.2,442.4z M393.9,419.8
		c-7.8,1.6-15.4,1.6-22.9,0c-9.2-3.2-15.7-9.2-19.4-17.9c-0.4-0.9-0.9-1.1-1.7-0.6l-11,6.9c-19.5,12.9-30.6,30.8-33.4,53.7
		c-4.8,40-1.2,79.6,10.6,118.7c0.2,0.8,0.8,1.1,1.6,1l22.5-3.3c0.9-0.1,1.6-1,1.4-1.9c0-0.1,0-0.1,0-0.2
		c-6.9-25.7-11.6-51.7-14.2-78.1c-0.2-2.2,1.2-4.2,3.3-4.8c6.2-1.7,9.3,1.8,9.3,10.4l5.2,32.5c0.1,0.3,0.3,0.5,0.6,0.4
		c0.2,0,0.3-0.2,0.4-0.4c4.4-26.2,20.2-37.9,47.4-35c1.1,0.1,2.1-0.3,2.8-1.1l4.9-5.7c0.3-0.4,0.7-0.6,1.2-0.7
		c8.2-2.1,16.6-2.5,25-1.3c0.9,0.1,1.2-0.3,1.1-1.1l-2.6-19.9l5.9-1.5c2.4-0.6,4.7,0.8,5.3,3.2c0,0.1,0,0.1,0,0.2l3.6,17.7
		c2.3,7.3,1.4,12.3-2.7,15.1l-26-1.5c-0.7,0-1.4,0.5-1.4,1.2c0,0.4,0.2,0.9,0.5,1.1c12.8,9.9,12.3,19,14.6,34
		c0.1,0.8,0.6,1.3,1.5,1.3c11.1,0.7,22.2,1.1,33.3,1.1c14.3,0,15.9-13,15.1-23.8c-3.2-42.1-8.2-92-50.8-113.2l-9.9-6
		c-0.8-0.5-1.5-0.3-1.9,0.6C409.3,409.5,402.9,415.9,393.9,419.8z M176.3,449.6c-18,17-22.2,42.9-21.7,67.1
		c-1.5,14.9,12.8,22.3,23.2,30.2c9.8,9.9,17.5,21.5,23.2,34.7l6.2,21.9c0.1,0.4,0.5,0.6,0.9,0.5c0.2-0.1,0.4-0.2,0.5-0.5
		c3.4-10.5,4.2-20.9,2.6-31.2c-2.6-26.5-1.7-83.3,43.8-66.9c3.2,2.5,6.8,4.2,10.8,5.2c0.9,0.2,1.7,0.1,2.5-0.3
		c6.3-3.3,13-5.4,20-6.6c1.4-0.2,2.5-1.5,2.5-2.9c-0.2-16.7,1.1-33.2,4.1-49.6c0.1-0.7-0.3-1.4-1.1-1.5c0,0-0.1,0-0.1,0l-5.9-0.4
		c-29-6.4-50.5-10.7-64.3-13C205.9,433.3,190.2,437.8,176.3,449.6z M594.5,447.8c-0.7-0.2-1.1-0.1-1.3,0.3c-2,1-3.4,2.2-4.2,3.4
		c-12.4,20.8-34,67.1-26.3,93.7c1.2,4.7,4.4,9.1,9.5,13.2c12.1,9.6,25.5,15.8,40.2,18.7c3.7-6.6,7.9-12,12.5-15.9
		c0.6-0.5,0.7-1.5,0.2-2.1c-0.1-0.1-0.3-0.3-0.4-0.4c-9.9-5.2-19.2-11.5-27.7-18.7c-0.7-0.6-1-1.3-1-2.2l0.5-8.5
		c1.4-2.8,2-6.1,2-10.1l3.9-7.4c0.4-0.7,1-1.1,1.8-1.2c13.3-1.4,7.1,17,4.8,23l24.1,15.2c1.7,1.1,3.8,1.1,5.5,0.1
		c7.8-4.4,15.6-9,23.3-13.9c5.3-3.3,1.8-15.1,1-20.2c1-3.5,3.3-5.5,6.8-6.2c0.8-0.2,1.6,0,2.3,0.5c3.1,2.2,4.5,5.8,4.2,10.8
		c1.3,6.9,1.4,13.4,0.1,19.5c-0.2,0.9-0.7,1.6-1.4,2l-30.8,19.7c-1.5,1-1.8,2.2-0.8,3.7l11.8,17.5c1.2,1.8,3.6,2.3,5.4,1.3
		c12.9-7,25-14.9,36.3-23.6c14.1-10.9,13.3-24.5,9.7-41c-3.7-20-9-39.6-16-58.7l-5-11.9c-0.3-0.8-1.2-1.3-2.1-1.1
		c-8.4,1.4-16.4,0.5-24.2-2.6c-0.9-0.4-1.8-0.3-2.6,0.1c-18.5,9.9-28.9,8.7-42.7-7.5c-0.6-0.7-1.2-0.9-2.1-0.6
		C604.8,438.8,599.1,442.4,594.5,447.8z M358.7,662l38,1c0.7,0,1.4-0.6,1.4-1.3c0,0,0,0,0,0l2.2-101c0-0.9-0.7-1.7-1.6-1.8
		c-23.9-1.5-34.8-27.5-16.9-44.5c1-1,0.8-1.4-0.6-1.3c-26.1,2.5-23.9,37.7-24.3,56.7c-0.6,29.4-0.8,59.3-0.8,89.5
		C356.1,660.8,357.3,662,358.7,662z M730.8,563.3c-2.3,4.5,0.3,8.5,5,9.6c7,1.7,14.1-1.6,20-0.5c10.8,2,16.4,9.3,16.6,21.9
		c-0.2,7.9-3.2,14.3-9,19.2c-0.5,0.4-0.6,1.2-0.2,1.7c0.2,0.3,0.5,0.4,0.9,0.4c13.3,0.7,26.5,0.7,39.8,0c15-0.8,14.7-23.9,19-34.6
		c6-14.7,15-27.3,27.1-37.6c1.3-1.2,1.5-3.2,0.3-4.5c-0.1-0.1-0.2-0.2-0.3-0.3c-3.5-3.1-6.8-4.4-10-3.8c-6.9-1-12.5-0.7-16.9,0.8
		c-10,0.1-18.5-2.3-25.7-7.4c-8-4.4-15.7-7.4-23.1-9c-11-7.4-19.4-6.2-25,3.6C741.9,535.4,735.7,549,730.8,563.3z M223.4,567.2
		l1.6,14.6l-0.6,11.3l-4.5,18.9c-0.4,1.6,0.6,3.3,2.3,3.7c0.2,0.1,0.5,0.1,0.7,0.1h48.9c2.6,0,3.4-1.2,2.3-3.5l-23.6-55.7
		c-1.7-11.5,0-22.7,5.2-33.4c0.4-0.8,0.2-1.5-0.5-2c-3.6-2.7-7.7-4.4-12.3-5.3C221.4,512.5,222.2,554.2,223.4,567.2z M400.9,517.1
		c-26.9,10.1-12.9,41,8.4,24.5C421.7,535.8,413.4,510.6,400.9,517.1z M290.9,616.2l27.6,0.2c1.1,0,1.4-0.5,1.1-1.5
		c-2.7-8.2-6.4-15.8-11.2-23c-8.8-13.3-11.4-34.5-14-50c-1.8-10.4-9.5-16.1-18.6-19.8c-0.7-0.3-1.4-0.2-2.1,0.3
		c-14.2,11-13.2,29.5-6.7,44.7c7.2,16.7,14.9,33,23.2,48.8C290.5,616.1,290.7,616.2,290.9,616.2z M81.2,603.2
		c4.2,50.1,13.6,106.4,17.8,145c1.8,16.9,12.6,35.4,31.1,35.9c10.4,0.2,20.8,0.3,31.2,0c14.6-0.3,18.6,6.8,26.9,16.6
		c0.5,0.6,1.3,1,2.1,1l208.1,0.6c98.5,0.6,197.1,0.5,295.7-0.3c14.6-0.1,44.4,5.7,39.6-19.6c-0.2-1,0.2-2.4,1.2-4.3
		c5.6-10.7,18.9,1.3,24.4,5c0.7,0.5,1.7,0.4,2.2-0.3l6.8-8l-1.2-38.5c-0.1-3.4,2.6-6.3,6-6.4c0.6,0,1.3,0.1,1.9,0.2l19.7,5.6
		c0.5,0.2,1.1,0.1,1.7-0.1c8.7-3.6,14.8-5.5,18.4-5.6c10.7-0.3,5.4,26.8,3.7,31.9c-1.7,5.4-0.6,9.1,0,14.3l2.4,14.4l0.8,8.6
		c0.2,1.9,1.8,3.2,3.7,3.1c0,0,0,0,0,0l12.7-1.4c0.8-0.1,1.4-0.5,1.8-1.1l7.5-12.1c12.7-3.3,26.4-4.5,41-3.7
		c30.3,1.7,34.9-24.3,38.1-47.3c5.3-39.3,10.4-78.7,15.2-118c0.7-5.8,0.9-11.4,0.4-16.7c4.3-47.7-41.6-77.4-83.2-49.7
		c-20,16.1-30.3,37.8-30.7,65.3c-0.1,8.5-0.2,27.8-0.1,58c0.1,16-3.2,25.3-14.4,35.5l-600.3,0.4c-12.3-7.9-18.3-18.4-18.2-31.5
		c0.3-23.8,0.3-44.4-0.2-61.9c-0.7-28.3-11.1-50-31-65c-13.1-10.8-26.5-14.5-40.2-11.2C94.7,548.9,80.4,569.4,81.2,603.2z
		 M435.4,608.3l7.1-1.2c1.9-0.3,3.1-2,2.8-3.9c0-0.1-0.1-0.3-0.1-0.4c-3.6-12.4-12-41.5-20.9-49.7c-1.1-1-2.8-1-3.8,0.1
		c-0.8,0.8-1,2.1-0.4,3.1c6.1,11.9,18.2,36.1,13.4,49.7c-0.3,0.9,0.1,1.9,1,2.2C434.8,608.3,435.1,608.3,435.4,608.3z M456.1,585.4
		l5.7,4.6c0.9,0.7,1.5,0.5,1.8-0.6c2.4-10.7,4.9-22.6,0.4-32.7c-0.3-0.7-1.1-1.2-1.9-1.2l-19.3-0.3c-1.4,0-1.8,0.6-1.2,1.8l8.1,19.9
		C451.1,580.2,453.3,583.1,456.1,585.4z M647.2,586.6L638,574c-1.6-2.2-4.6-2.6-6.8-1c0,0,0,0,0,0l-0.9,0.6c-7.4,5.4-10,14.2-6,19.7
		l0.3,0.4c4,5.5,13.3,5.6,20.6,0.2l0.9-0.6C648.3,591.7,648.8,588.7,647.2,586.6z M533.9,583.4l2.6,30.3c0.1,0.9,0.6,1.4,1.5,1.6
		c4.7,0.5,9.5,0.8,14.3,0.8c54.8,0.2,110.6,0.2,167.3,0.1c3.2,0,4.9-1.6,5-4.9l0.9-27.9c-0.1-1.4-1.3-2.5-3.6-3.5
		c-8.6-3.7-17.6-5.1-27.1-4.3c-0.8,0.1-1.3,0.5-1.3,1.3c-0.2,1.6,0.4,3,1.7,4.2c-1.4,8.2,2.1,17.7-10.8,17.4
		c-6.5-0.1-24.5-1.1-29.2,3.3c-12.9,12.1-35.9,12.7-42.7-6.6c-0.5-1.4-1.6-2.6-3-3.2l-36.6-16.1C558.7,572,545.8,574.5,533.9,583.4z
		 M502.8,602.2c0.3,0.2,0.7,0.2,0.9-0.1c0.1-0.1,0.1-0.2,0.1-0.4l0.4-16.7c0-0.7-0.3-0.9-1-0.8C493.2,586.1,497.2,597.9,502.8,602.2
		z M754.1,585.5l1.2,15.7c0,0.2,0.2,0.3,0.3,0.3c0,0,0,0,0,0h0c2.6-0.2,4.5-3.8,4.2-8.2c0,0,0,0,0,0l0-0.6c-0.3-4.3-2.7-7.7-5.4-7.5
		c0,0,0,0,0,0h0C754.3,585.1,754.1,585.3,754.1,585.5C754.1,585.5,754.1,585.5,754.1,585.5z M327.6,598c1.2,4.8,4.9,9.1,10.9,12.9
		c1.6,1,3.7,0.5,4.7-1.1c0.3-0.5,0.5-1.1,0.5-1.7l0.6-14l-0.6-6.7c-0.1-1-0.6-1.4-1.7-1.3l-15.4,2.7c-0.8,0.1-1.4,0.9-1.2,1.7
		c0,0.1,0,0.1,0,0.2L327.6,598z M736.6,587.2c-1,0.1-1.7,0.8-1.8,1.8l-1.9,22.9c-0.1,1.1,0.7,2,1.8,2.1c0.3,0,0.7,0,1-0.2l11.6-5.3
		c0.7-0.3,1.2-1.1,1.2-1.9l-0.8-18.3c0-1.1-1-1.9-2.1-1.9c0,0-0.1,0-0.1,0L736.6,587.2z M510.7,606.8c0,0.5,0.3,0.9,0.7,1.1l13,5.9
		c0.6,0.3,1.3,0,1.6-0.6c0.1-0.2,0.1-0.4,0.1-0.6l-1.4-24.5c0-0.6-0.6-1.1-1.2-1.1h-11.6c-0.6,0-1.2,0.5-1.2,1.2l0,0V606.8z
		 M422.1,627.3c-3.9-0.6-7.2-0.3-9.9,0.9c-0.7,0.3-1.2,1.1-1.2,1.9c0.2,10.1,0.1,20.2-0.2,30.4c-0.3,7.6-3.1,12.6-8.4,15
		c-0.8,0.4-1.4,1.1-1.6,2c-1.6,7.7-5.1,14.4-10.5,20.1c-0.9,1-0.7,1.5,0.7,1.5l15.2,0.3c128.4,0.1,256.6,0.1,384.8,0
		c13.8,0,24.7-1,25.1-17.1c0.2-6.8,0.2-23,0-48.7c0-2.5-1-4.1-2.9-4.9c-2.3-0.9-5.2-1.3-8.6-1.3C677,627.3,549.6,627.3,422.1,627.3z
		 M212.4,628.4c-0.9,0-1.8,0.4-2.6,1c-0.7,0.4-1,1-1.1,1.8c-1.7,22.7-1.8,40.9-0.3,54.7c1.1,9.7,9.5,13.6,18.9,13.6
		c42,0,85.6,0.1,130.6,0.2c0.1,0,0.2-0.1,0.2-0.2c0-0.1,0-0.1,0-0.1c-5.1-6.9-7.4-14.8-6.9-23.7c0-0.8-0.4-1.6-1.1-2.1
		c-5.7-3.7-7.5-7.1-7.5-14.2c0-10.2,0-20.4,0-30.6c0-0.9-0.4-1.3-1.3-1.3l-6.6,0L212.4,628.4z M364.1,681.1
		c2.3,18.4,17.3,12.6,22.2,0.2c1.8-2.1,2.5-4.8,2.2-8.2c-0.1-0.7-0.5-1.1-1.2-1.2l-21.5-1.4c-0.9-0.1-1.5,0.3-1.7,1.2
		C363.1,674.8,363.1,677.9,364.1,681.1z M752,803.2c-4.7,4.4-7,9.8-6.9,16.3c0,2.1,1.8,3.8,3.9,3.8h55.3c3.3,0,5.9-2.7,5.9-5.9
		c0-0.1,0-0.2,0-0.3c-1-23.1-8.4-48.6-0.5-69.8c0.4-1-0.1-2.2-1.2-2.6c-0.6-0.2-1.2-0.2-1.7,0.1l-6.4,3.6c-0.6,0.3-1.2,0.4-1.8,0.2
		c-3.8-1.1-7.8-1.5-11.8-1c-0.8,0.1-1.5-0.1-2.1-0.7l-3.3-3.2c-0.8-0.8-1.3-0.6-1.6,0.5c-0.8,3.2-0.9,5.6-0.3,7.4
		c5.6,17.4,1.9,31.2-11.2,41.6c-7.5,5.9-15.4-0.9-21.6-4.7c-0.9-0.6-1.3-0.3-1,0.7c1,4.4,3.2,8.2,6.4,11.4
		C752.7,801.4,752.7,802.5,752,803.2C752,803.2,752,803.2,752,803.2z M167.7,810.8c0-0.9-0.7-1.6-1.6-1.6c0,0,0,0,0,0l-34.9,0.1
		c-0.9,0-1.6,0.7-1.6,1.6l0.1,15.9c0,0.9,0.7,1.6,1.6,1.6c0,0,0,0,0,0l34.9-0.1c0.9,0,1.6-0.7,1.6-1.6L167.7,810.8z M894.2,809.6
		c0-0.4-0.3-0.7-0.7-0.7h0l-37,0.3c-0.4,0-0.7,0.3-0.7,0.7v0l0.2,18.3c0,0.4,0.3,0.7,0.7,0.7h0l37-0.3c0.4,0,0.7-0.3,0.7-0.7v0
		L894.2,809.6z" class="st0"></path>
        <path d="M428.5,198.4c-27.4-6.6-53.6-4.9-78.3,5.3c-4.9,2-11.6,5.7-20.1,11c24.2-24.4,53.1-33.1,86.6-26.1
		c6.4,1.3,11.2,0.4,16.3-2.8c1.2-0.8,2.9-0.5,3.7,0.8c0.7,1,0.6,2.4-0.3,3.3L428.5,198.4z" class="st1"></path>
        <path d="M428.5,198.4l2.6,9.7c-1.1,0.8-1.1,2.3-0.1,4.4c0.5,1.1,1.4,2.1,2.7,3.1c16.6,12.3,29.8,27.6,39.6,45.9
		c1.9,3.6,5.2,5.8,9.1,4.3c1.8,3.9,2.7,8.1,2.7,12.5c0,0.8-0.5,1.6-1.3,1.9l-8.1,3.3c-0.7,0.3-1.2,0.8-1.4,1.6l-2.6,10.4
		c-0.2,0.7-0.7,1.3-1.4,1.7c-2.9,1.3-5.9,1.4-8.9,0.2c-26.8-10.4-43.7-17.1-50.6-20.2c-9.1-4.1-10,5.6-11,11.3
		c-0.3,1.5-1.7,2.6-3.3,2.3c-14.1-2.5-28-6-41.9-10.5c-8.6-2.8-15.6-2.1-18.4,7.2c-3.5,11.2-7.1,23-10.8,35.5
		c-0.7,2.2-1.7,2.4-3.1,0.6c-7-8.9-14.1-9.5-24.8-12c-0.8-0.2-1.4-0.7-1.7-1.5c-5.3-12.3-6.7-24.3-4-36.1c4.2-8.9,9.5-18.6,15.9-29
		c1-1.6,0.4-3-1.8-4.2c0-1.7,0.3-2.6,0.9-2.8l2.7-10l1.7-5.8c1-0.7,1.8-2.3,2.2-4.8c6.7,1.1,12.3,0.3,16.8-2.3
		c8.5-5.4,15.2-9,20.1-11C375,193.5,401.1,191.7,428.5,198.4z M408.2,245c0-2.9-2.4-5.3-5.3-5.3c-2.9,0-5.3,2.4-5.3,5.3l0,0
		c0,2.9,2.4,5.3,5.3,5.3h0C405.8,250.3,408.2,248,408.2,245L408.2,245z M390.9,246.3c0-2.8-2.3-5.1-5.1-5.1s-5.1,2.3-5.1,5.1
		c0,2.8,2.3,5.1,5.1,5.1l0,0C388.7,251.4,390.9,249.1,390.9,246.3L390.9,246.3z" class="st2"></path>
        <path d="M313.3,217c-0.5,2.5-1.2,4.1-2.2,4.8l-0.9-18.2c0-0.4,0.3-0.7,0.7-0.7c0,0,0,0,0,0c0.2,0,0.5,0,0.7,0
		c0.4,0,0.6,0.2,0.6,0.6L313.3,217z" class="st1"></path>
        <path d="M431.1,208.1c23.8,13.4,40.9,32.6,51.3,57.6c-3.9,1.5-7.1-0.7-9.1-4.3c-9.8-18.2-22.9-33.5-39.6-45.9
		c-1.3-1-2.2-2-2.7-3.1C430,210.4,430,209,431.1,208.1z" class="st1"></path>
        <path d="M309.3,227.6l-2.7,10c-2.6-4.7-6.4-8.1-11.6-10.3c-1.2-0.5-1.9-1.1-2.2-1.6c-0.2-0.5-0.3-1.2-0.3-2
		c0-0.5,0.5-0.9,1-0.9c0.1,0,0.3,0.1,0.4,0.1C298.9,225.7,304,227.2,309.3,227.6z" class="st1"></path>
        <path d="M691.5,244.1c-49.7-23.2-105.6-17.5-136.4,31.2c-9.8,15.5-16.6,25.7-20.5,30.5c12.7-53.4,56.1-88.4,111.7-81.1
		C662.3,226.8,677.3,233.3,691.5,244.1z" class="st1"></path>
        <path d="M691.5,244.1c22.6,16.6,36.8,40.9,42.6,73c6.7,36.6,8.5,73.2,5.4,109.7c-0.3,3.5-3.1,6.3-6.6,6.6l-15.2,1.4
		c-3.1,0.3-4.4-1.1-3.9-4.1c4.3-29.6,5.1-59.2,2.4-89c-0.1-0.9-0.8-1.7-1.8-1.8l-4.9-0.4c-2.3-0.2-4.3,1.5-4.5,3.8
		c0,0.1,0,0.2,0,0.3c-0.2,29.1-0.2,58.8-5.3,87.2c-0.4,2-2.1,3.6-4.2,3.7l-22.9,1.2c-2.2,0.1-3-0.9-2.5-3c2.2-9.9,3.8-19.8,4.8-29.6
		c3.4-35.8,4.3-71.6,2.7-107.5c0-1.2-1-2.2-2.2-2.2l-7.4-0.1c-1,0-1.5,0.5-1.6,1.5l-1.4,23.8c-0.1,0.9-0.8,1.7-1.8,1.7l-21.6,0.6
		c-1.2,0-1.8-0.5-1.8-1.7l-0.4-23.2c0-0.8-0.4-1.4-1.1-1.8c-3.3-1.7-6.5-1.5-9.4,0.6c-0.8,0.5-1.2,1.3-1.2,2.2l-1.1,20.9
		c-0.1,1.7-1.5,3-3.1,2.9l-22.2-0.4c-0.8,0-1.4-0.6-1.4-1.4v-22.8c0-0.7-0.3-1.3-0.9-1.7c-2.6-1.8-5.4-2.3-8.5-1.5
		c-1.1,0.3-1.8,1.1-1.9,2.2l-2.5,23.4c-0.1,1.2-1.1,2.1-2.4,2.1h-21.8c-1.1,0-1.9-0.9-1.9-1.9c0,0,0,0,0,0l0.8-23.2
		c0-0.6-0.2-1.1-0.8-1.5c-2.5-1.6-5.2-1.9-8-0.9c-0.8,0.3-1.3,0.8-1.5,1.6c-6.8,22.8-7.4,52.1-8.3,76c-0.7,18-8.1,27.9,7,43.5
		c0.6,0.7,1,1.4,1,2.3l1.2,16.3c0.1,0.7-0.5,1.3-1.2,1.4c0,0-0.1,0-0.1,0c-8.6,0-26.1,4.1-26.9-10.6c-2.2-40.5,1.6-79.8,11.3-117.9
		c3.9-4.9,10.7-15.1,20.5-30.5C585.9,226.6,641.8,220.9,691.5,244.1z M621,280.2c0-2.8-2.3-5.1-5.1-5.1c-2.8,0-5.1,2.3-5.1,5.1
		c0,2.8,2.3,5.1,5.1,5.1l0,0C618.7,285.3,621,283,621,280.2L621,280.2z M637.9,280.1c0-2.7-2.2-4.9-4.9-4.9l0,0
		c-2.7,0-4.9,2.2-4.9,4.9l0,0c0,2.7,2.2,4.9,4.9,4.9c0,0,0,0,0,0C635.7,285,637.9,282.8,637.9,280.1L637.9,280.1z" class="st2"></path>
        <circle r="5.3" cy="245" cx="402.8" class="st1"></circle>
        <path d="M305.8,240.4c2.2,1.2,2.8,2.6,1.8,4.2c-6.5,10.5-11.8,20.1-15.9,29C292.8,260.1,297.6,249.1,305.8,240.4z" class="st1"></path>
        <circle r="5.1" cy="246.3" cx="385.8" class="st1"></circle>
        <circle r="5.1" cy="280.2" cx="615.8" class="st1"></circle>
        <circle r="4.9" cy="280.1" cx="633" class="st1"></circle>
        <path d="M411.9,292.7c4.6,5.4,11.7,7.8,21.3,7.3l22.8,8.5c0.9,0.3,1.3,1,1.3,1.9l-0.2,30.8l-14.8,1.9
		c0-5.4-0.1-11.1-0.4-16.9c-0.4-8.8-10.8-5.3-11,2c-0.3,8.7-0.3,17.5-0.2,26.4c0,0.9,0.4,1.5,1.3,1.8l4,1.3
		c-1.1,8.7,1.7,14.8,8.5,18.4c-16.3,6.5-34.2,8.2-51.6,9.6l-19.8-0.6l-21.9-5.3c14.5-3.8,15.2-10.6,17.5-22.3c1.5,0.7,2.7,0.7,3.6,0
		c0.7-0.5,1.1-1.4,1.2-2.8c1-9.3,1.1-18.6,0.4-28c-0.3-4.4-2.8-7.6-7.6-5.5c-1.8,0.8-2.9,2.5-3.1,4.4l-1.2,21.3
		c-13.9-13.6-30.7,0-38.7,12.8c-15.8,7.9-27.3,5-34.6-8.8c-10.5-19.9,13.4-38.1,25.3-18.4c2.5,4.2,5,8.8,7.5,13.8
		c1.1,2.3,3.9,3.2,6.2,2.1c0.3-0.2,0.7-0.4,1-0.6c1.6-1.4,2.8-3.7,3.7-6.8c4.1-14.3,9-30.6,14.8-48.8c0.4-1.2,1.2-1.6,2.4-1.2
		c15,5.5,30.7,9.3,47.2,11.5C403.2,303.3,408.2,300,411.9,292.7z M411.1,348.7c-5,4.8-12.4,4.2-16.8-1c-1-1.3-2.9-1.4-4.2-0.4
		c-0.6,0.5-0.9,1.2-1,1.9c-1.7,12.6,19.8,10.6,26.2,6.1c2.3-1.6,3.1-4.6,1.9-7.1c-0.6-1.3-1.7-1.7-3.4-1.3
		C413.1,347.1,412.1,347.7,411.1,348.7z" class="st3"></path>
        <path d="M433.2,300c-9.6,0.5-16.7-1.9-21.3-7.3C418.1,292.8,425.2,295.3,433.2,300z" class="st4"></path>
        <path d="M178.7,322.5c0.9-0.7,1.1-1.4,0.4-2.4c-4.5-6.9-6.6-14.6-6.1-23c0.1-1.1,1-2,2.1-1.9c0.4,0,0.7,0.1,1,0.4
		l20.3,14c0.6,0.4,1.2,0.4,1.8,0.1l19.2-10.4c0.8-0.4,1.9-0.1,2.3,0.7c0.1,0.2,0.2,0.5,0.2,0.8c-0.1,29.1-22.9,31.6-45.7,28.4
		c-0.9-0.1-1.5-0.9-1.4-1.8c0.1-0.4,0.3-0.8,0.7-1.1L178.7,322.5z" class="st0"></path>
        <path d="M368.8,357.5c-5.6,0.9-7.8-2.6-6.6-10.6l1.2-21.3c0.1-1.9,1.3-3.6,3.1-4.4c4.8-2.1,7.3,1.1,7.6,5.5
		c0.7,9.3,0.5,18.6-0.4,28c-0.1,1.4-0.5,2.3-1.2,2.8C371.5,358.2,370.3,358.2,368.8,357.5z" class="st0"></path>
        <path d="M442.3,343.1l-0.6,13.9c0,0.9-0.5,1.4-1.4,1.6c-1.1,0.2-2.5-0.1-4.2-0.8l-4-1.3c-0.8-0.3-1.3-0.9-1.3-1.8
		c-0.1-8.9-0.1-17.7,0.2-26.4c0.2-7.3,10.7-10.8,11-2C442.2,332,442.3,337.6,442.3,343.1z" class="st0"></path>
        <path d="M664.5,379.4c-4.2-0.4-8.2,0.7-12.1,3.3c0.2-6.2,3.3-30.6-10.6-22.8c-0.7,0.4-1.2,1.2-1.2,2l-0.6,28.8
		c0,1.1,0.5,1.8,1.6,2l5.4,1.3c-1.6,8.1,0.7,14.8,6.9,20l-8.9,3l-15,0.9c-20.6-0.2-40.9-2.5-60.8-6.9c3.2-6.2,9.5-8.5,4.8-16.8
		c3.3-0.5,5-2.2,5-5.3c0.1-10.9,1.5-24.4-1.4-28.6c-4.1-5.8-9.8-0.5-9.8,5.1c-0.1,4.4-0.3,8.8-0.6,13.2l-12.1-0.7l2.3-39.8
		c0.2-2.9,2.5-5.2,5.4-5.4c7.8-0.4,15.8-0.8,23.9-1.3c11.4-0.7,24.4,1.3,36.7,0.4c13.7-1,25.8,0.9,39,0.9c2.6,0,3.9,1.3,3.8,3.9
		L664.5,379.4z M620.8,386.7l-18.1-0.1c-1.7-0.7-3.6-0.5-5.5,0.4c-0.7,0.3-1,0.9-1,1.6c-0.2,18,26.2,19.2,30.8,1.4
		c0.2-0.7,0-1.4-0.5-2C624.7,386.3,622.9,385.8,620.8,386.7z" class="st3"></path>
        <path d="M457,341.2c12.7,13.8,0.9,28.9-12.5,34.9c-6.8-3.6-9.6-9.7-8.5-18.4c1.7,0.7,3.1,1,4.2,0.8
		c0.9-0.2,1.3-0.7,1.4-1.6l0.6-13.9L457,341.2z M452.8,353.1c0-2-1.6-3.6-3.6-3.6c-2,0-3.6,1.6-3.6,3.6l0,0c0,2,1.6,3.6,3.6,3.6l0,0
		C451.2,356.7,452.8,355.1,452.8,353.1z" class="st4"></path>
        <path d="M362.3,347c-1.2,7.9,1,11.4,6.6,10.6c-2.3,11.8-3,18.5-17.5,22.3c-9.1-3.8-18.4-10.5-27.7-20.1
		C331.6,347,348.4,333.4,362.3,347z M358.2,353.3c0-2.1-1.7-3.9-3.9-3.9s-3.9,1.7-3.9,3.9c0,0,0,0,0,0c0,2.1,1.7,3.9,3.9,3.9
		c0,0,0,0,0,0C356.4,357.2,358.2,355.4,358.2,353.3z" class="st4"></path>
        <path d="M394.3,347.7c4.4,5.2,11.8,5.8,16.8,1c1-1,2-1.6,2.7-1.8c1.7-0.4,2.8,0,3.4,1.3c1.2,2.5,0.4,5.5-1.9,7.1
		c-6.5,4.5-28,6.5-26.2-6.1c0.2-1.6,1.7-2.8,3.3-2.6C393.2,346.8,393.9,347.1,394.3,347.7z" class="st0"></path>
        <circle r="3.9" cy="353.3" cx="354.3" class="st0"></circle>
        <circle r="3.6" cy="353.1" cx="449.2" class="st0"></circle>
        <path d="M573.9,394.2c-3.5-2-7-2.5-10.6-1.6c-0.9,0.2-1.7,0-2.4-0.6c-1.6-1.5-1.8-3.2-0.6-5c0.4-0.6,1-1,1.7-1h4.2
		c0.7,0,1.1-0.3,1.1-1c0.4-2.4,0.2-4.5-0.4-6.3c0.4-4.4,0.6-8.9,0.6-13.2c0.1-5.6,5.8-10.9,9.8-5.1c3,4.2,1.6,17.7,1.4,28.6
		C578.8,392,577.2,393.7,573.9,394.2z" class="st0"></path>
        <path d="M652.4,382.7c-0.2,1.4-0.2,2.4,0.1,3.1c0.3,0.7,0.8,0.9,1.5,0.6c3.3-1.2,5.4-0.5,6.3,2.3
		c0.6,1.9-0.4,3.9-2.3,4.5c-0.7,0.2-1.5,0.2-2.2,0c-2.6-0.9-5.6-0.6-8.9,0.8l-5.4-1.3c-1.1-0.2-1.6-0.9-1.6-2l0.6-28.8
		c0-0.8,0.5-1.6,1.2-2C655.7,352.1,652.6,376.5,652.4,382.7z" class="st0"></path>
        <circle r="5.4" cy="367.7" cx="760" class="st4"></circle>
        <circle r="5.2" cy="367.4" cx="778.2" class="st4"></circle>
        <circle r="5.5" cy="367.5" cx="796.5" class="st4"></circle>
        <path d="M554.8,378l12.1,0.7c0.6,1.8,0.8,3.9,0.4,6.3c-0.1,0.7-0.5,1-1.1,1H562c-0.7,0-1.4,0.4-1.7,1
		c-1.2,1.8-1,3.5,0.6,5c0.7,0.6,1.5,0.8,2.4,0.6c3.6-0.9,7.1-0.3,10.6,1.6c4.8,8.3-1.5,10.6-4.8,16.8
		C553.1,406.3,548.3,395.3,554.8,378z" class="st4"></path>
        <path d="M664.5,379.4l-2.4,31.3c-0.1,0.9-0.5,1.5-1.4,1.7l-6.9,1.7c-6.3-5.2-8.6-11.9-6.9-20c3.3-1.4,6.3-1.6,8.9-0.8
		c1.9,0.6,3.9-0.4,4.5-2.3c0.2-0.7,0.2-1.5,0-2.2c-0.9-2.8-3-3.5-6.3-2.3c-0.7,0.3-1.2,0.1-1.5-0.6c-0.3-0.7-0.4-1.7-0.1-3.1
		C656.3,380,660.4,378.9,664.5,379.4z" class="st4"></path>
        <path d="M373.2,385.1l19.8,0.6c-0.9,5.4-0.7,10.2,0.4,14.5c-9.1,4.6-17,5.1-23.7,1.4
		C372.4,397.8,373.5,392.4,373.2,385.1z" class="st4"></path>
        <path d="M602.8,386.6c3.1,13,16,10.6,18.1,0.1c2-0.8,3.9-0.4,5.6,1.4c0.5,0.6,0.7,1.2,0.5,2
		c-4.6,17.8-30.9,16.6-30.8-1.4c0-0.7,0.4-1.3,1-1.6C599.2,386.1,601.1,385.9,602.8,386.6z" class="st0"></path>
        <path d="M620.8,386.7c-2,10.5-15,13-18.1-0.1L620.8,386.7z" class="st4"></path>
        <path d="M284,435.4l5.3-6.8c0.5-0.6,1.1-0.9,1.9-1c4.7-0.2,7.4-8.3,8.2-12l8.9-15l5.4-6.8l22.8-1
		c1.6-0.1,1.8,0.3,0.4,1.2c-16.1,10.1-28.5,23.6-37.3,40.6c-0.4,0.8-1.2,1.2-2.1,1.2L284,435.4z" class="st5"></path>
        <path d="M452.7,393.2c0.5,4.9,2,7.6,4.7,8.1c1.5,7.7,5.3,15,11.5,21.9c0.4,0.4,0.5,0.9,0.4,1.4c-0.2,1.4-1.1,2-2.7,1.6
		c-9-13.5-21-24-36.2-31.4c-1.4-0.7-1.3-1.1,0.2-1.1L452.7,393.2z" class="st5"></path>
        <path d="M452.7,393.2l50.9,0.2c-0.9,3.6-2.7,5.6-5.1,6.1c-10,1.8-23.7,2.4-41.1,1.8
		C454.7,400.8,453.1,398.1,452.7,393.2z" class="st1"></path>
        <path d="M299.5,393.4c-0.4,2.1-1.5,4.6-3.4,7.4c-24,1-48.2,1.4-72.6,1.2c-30.4-0.3-51.1,7.5-69.2,32.7
		c7-19.1,19.3-31.7,36.9-37.7c6.9-2.4,17.6-3.5,32.3-3.5C248.7,393.4,274.1,393.4,299.5,393.4z" class="st1"></path>
        <path d="M299.5,393.4l14.1,0.5l-5.4,6.8l-12.1,0.1C298,398,299.1,395.5,299.5,393.4z" class="st6"></path>
        <path d="M760.1,393.6c1.3,3,3.2,5.4,5.7,7c0.7,0.5,1.4,0.7,2.2,0.7c39.6,0,89.7-4.7,95.2,47.5c1.4,13.1,0.5,18,8.6,29
		l0.3,33.4c-6.5,4.2-15,7.8-25.3,10.7c-8.3-0.3-17.1-0.4-26.5-0.2c-26.4,0.5-56-38.4-80.8-8.4L725,523c-0.7,0.5-1.5,0.5-2.2,0.1
		l-3.3-1.6l-8.7-38.8c0.8-7.3,2.8-14.1,6.1-20.4c2.5-4.9,4.5-4.8,9.4-6.1c4.4-1.2,10.4-5.8,17.9-13.9c7.6-11.8,10.6-27.3,8.9-46.7
		c-0.1-0.9,0.4-1.7,1.2-2C755.8,393.1,757.7,393.1,760.1,393.6z M830.8,442.9c0-3.1-2.5-5.6-5.6-5.6s-5.6,2.5-5.6,5.6
		s2.5,5.6,5.6,5.6S830.8,446,830.8,442.9z M831,461.8c0-3.1-2.5-5.6-5.6-5.6s-5.6,2.5-5.6,5.6s2.5,5.6,5.6,5.6S831,464.9,831,461.8z" class="st4"></path>
        <path d="M871.9,477.9c-8.2-11-7.3-15.9-8.6-29c-5.4-52.2-55.5-47.6-95.2-47.5c-0.8,0-1.6-0.2-2.2-0.7
		c-2.5-1.7-4.5-4-5.7-7c21.7-0.3,52.1-3.4,71.4,3.2C868.4,409.5,874,441.7,871.9,477.9z" class="st1"></path>
        <path d="M503.6,393.4c3.3,0.3,5,1.8,5,4.2c0.3,19.2-0.6,40.6,16.1,48.1c8.9,15.9,24.3,35.5,28.9,55.2
		c-3.1,10.8-5,22.2-5.7,34l-34.6,31.7c-0.8,0.8-2.1,0.7-2.9-0.1c0,0,0,0-0.1-0.1c-8.4-10.2-15.9-21.2-22.5-33
		c0.4-6.6,0.5-11.7,0.2-15.4c-2.1-30.8-7.1-64.6-21.5-91.7c1.6,0.4,2.5-0.2,2.7-1.6c0.1-0.5-0.1-1-0.4-1.4
		c-6.2-6.9-10-14.2-11.5-21.9c17.4,0.6,31.1,0,41.1-1.8C500.9,399,502.6,397,503.6,393.4z" class="st4"></path>
        <path d="M80,400.5c0.7-0.5,1.1-1.1,1.4-1.9c0.2-0.5,0.5-1,1-1.3c3.5-2.7,6.6-2.4,9.3,0.9c0.4,0.5,0.5,1.1,0.2,1.7
		c-3.1,6-6.4,10.2-9.8,12.5c-6.1,4.2-14-8.3-15.6-13.4c-0.3-0.9,0-1.6,0.9-2.1c4.6-2.4,8.1-1.4,10.4,3.1c0.4,0.7,1.3,1,2,0.6
		C79.8,400.6,79.9,400.6,80,400.5z" class="st0"></path>
        <path d="M424.9,406c-4.7,7.4-11.8,17.7-20.7,21.5c-0.8,0.4-1.6,0.2-2.3-0.4l-8-7.3c9-3.8,15.4-10.2,19.3-19.2
		c0.4-0.9,1-1.1,1.9-0.6L424.9,406z" class="st6"></path>
        <path d="M393.4,400.1l5.8,2.1c0.9,0.3,1.4,1.3,1.1,2.2c-0.1,0.3-0.3,0.6-0.6,0.8c-7.5,6-16.6,7.9-25.8,5.1
		c-11.3-3.5-12.7-6.5-4.3-8.8C376.4,405.2,384.3,404.8,393.4,400.1z" class="st1"></path>
        <path d="M296.1,400.8l12.1-0.1l-8.9,15c-8.6,4-17.3,8.2-26.1,12.7c-4.1,2.1-8.2-1.9-10.8,3.2
		c-42-11.8-84.4-16.8-109.4,27.5c-0.2,0.4-0.7,0.5-1,0.3c-0.2-0.1-0.4-0.4-0.4-0.6c-0.6-8.6,0.3-16.6,2.7-24.1
		c18.1-25.2,38.8-33,69.2-32.7C247.9,402.2,272,401.8,296.1,400.8z" class="st4"></path>
        <path d="M370.9,419.7c-4.9,6.4-9.7,9.2-17.1,4c-5.7-4-10.7-9.2-15-15.6l11-6.9c0.8-0.5,1.4-0.3,1.7,0.6
		C355.2,410.5,361.7,416.5,370.9,419.7z" class="st6"></path>
        <path d="M424.9,406c42.7,21.3,47.7,71.1,50.8,113.2c0.8,10.8-0.8,23.8-15.1,23.8c-11.1,0-22.2-0.3-33.3-1.1
		c-0.8,0-1.3-0.5-1.5-1.3c-2.3-15-1.8-24.1-14.6-34c-0.6-0.4-0.7-1.3-0.3-1.8c0.3-0.4,0.7-0.6,1.1-0.5l26,1.5
		c5.6,2.1,11.5,2.8,17.9,1.9c2.7-0.4,4.2-1.9,4.3-4.6c0.9-13.2-10.7-12-19.6-12.4l-3.6-17.7c-0.5-2.4-2.8-3.9-5.2-3.4
		c-0.1,0-0.1,0-0.2,0l-5.9,1.5L340,503.5c-0.1-8.6-3.2-12-9.3-10.4c-2.1,0.6-3.5,2.6-3.3,4.8c2.6,26.4,7.3,52.5,14.2,78.1
		c0.2,0.9-0.3,1.8-1.2,2.1c-0.1,0-0.1,0-0.2,0l-22.5,3.3c-0.8,0.1-1.4-0.2-1.6-1c-11.9-39.1-15.4-78.7-10.6-118.7
		c2.8-22.9,13.9-40.8,33.4-53.7c4.3,6.4,9.3,11.5,15,15.6c7.4,5.2,12.2,2.4,17.1-4c7.5,1.6,15.1,1.6,22.9,0l8,7.3
		c0.7,0.6,1.4,0.8,2.3,0.4C413.2,423.7,420.2,413.4,424.9,406z" class="st4"></path>
        <path d="M299.3,415.7c-0.8,3.7-3.5,11.8-8.2,12c-0.8,0-1.4,0.4-1.9,1l-5.3,6.8l-21.5-3.8c2.5-5.1,6.6-1.1,10.8-3.2
		C282,423.9,290.7,419.7,299.3,415.7z" class="st7"></path>
        <path d="M645,417l0,18.5c0,0.8-0.4,1.5-1.1,1.8c-4.6,2.4-9.2,2.3-13.8-0.4c-6.1-3.5-1.7-13.8-0.1-19L645,417z" class="st4"></path>
        <circle r="7.8" cy="433.8" cx="79.3" class="st0"></circle>
        <circle r="5.1" cy="435.3" cx="906.5" class="st2"></circle>
        <path d="M287.8,449.3c-0.3,2.2-1.9,4.1-4.7,5.7c-36.7-4.2-67.6-17.9-106.7-5.4c13.9-11.9,29.6-16.3,47.2-13.4
		C237.3,438.6,258.8,443,287.8,449.3z" class="st1"></path>
        <path d="M690.2,460.5c-9.2,2.2-19.6,5.2-25.2-5c-0.4-0.7-1-0.9-1.7-0.6c-24.4,9.4-34.3,9-55.1-6.5
		c-0.7-0.5-1.4-0.7-2.2-0.7l-11.5,0.1c4.6-5.4,10.4-9,17.1-11c0.8-0.2,1.5,0,2.1,0.6c13.8,16.2,24.2,17.5,42.7,7.5
		c0.8-0.5,1.7-0.5,2.6-0.1c7.7,3.1,15.8,3.9,24.2,2.6c0.9-0.1,1.8,0.3,2.1,1.1L690.2,460.5z" class="st5"></path>
        <circle r="5.6" cy="442.9" cx="825.2" class="st1"></circle>
        <path d="M553.6,500.9c-4.6-19.7-19.9-39.3-28.9-55.2c9.7,1.4,26.7,4,35.1-3.1c0.6-0.5,1.3-0.6,2-0.1
		c4,2.9,8.5,3.8,13.5,2.8c0.6-0.1,1.1,0.3,1.2,0.8c0,0.2,0,0.5-0.1,0.7C567,464.2,559.4,482.2,553.6,500.9z" class="st7"></path>
        <path d="M744.2,442.4c-7.5,8.1-13.5,12.7-17.9,13.9c-4.9,1.3-6.9,1.2-9.4,6.1c-3.2,6.3-5.3,13.1-6.1,20.4l-11.3-33.9
		c-0.5-1.5-0.1-2.7,1.3-3.6c1.4-0.8,3.4-0.9,5.9-0.2C717.6,448,730.1,447.2,744.2,442.4z" class="st7"></path>
        <path d="M283,455l-4.9,33.1c-0.3,2-1.5,3.8-3.2,4.9L255,505.5c-45.5-16.4-46.5,40.4-43.8,66.9
		c-0.1,6.5-4.8,7.4-10.1,9.2c-5.7-13.2-13.4-24.8-23.2-34.7c1.2-16.8-9.8-24.3-23.2-30.2c-0.5-24.2,3.7-50,21.7-67.1
		C215.4,437.1,246.3,450.9,283,455z" class="st4"></path>
        <path d="M594.5,447.8l11.5-0.1c0.8,0,1.5,0.2,2.2,0.7c20.8,15.6,30.7,15.9,55.1,6.5c0.7-0.3,1.3-0.1,1.7,0.6
		c5.6,10.1,16.1,7.2,25.2,5c7,19.2,12.3,38.7,16,58.7c-10.3-1.1-20.4-0.8-30.3,0.9c0.3-5-1.1-8.5-4.2-10.8c-0.7-0.5-1.5-0.7-2.3-0.5
		c-3.5,0.7-5.8,2.7-6.8,6.2l-53.9,18.8c2.3-6,8.6-24.5-4.8-23c-0.8,0.1-1.4,0.5-1.8,1.2l-3.9,7.4l-28.2-1.1
		c4.8-19.5,13.2-40.8,25.3-63.9c1.5-2.9,0.7-4.9-2.2-6.2C593.4,447.7,593.8,447.6,594.5,447.8z" class="st6"></path>
        <path d="M593.2,448.1c3,1.3,3.7,3.4,2.2,6.2c-12.1,23.2-20.5,44.5-25.3,63.9l-7.5,27c-7.7-26.6,14-73,26.3-93.7
		C589.7,450.3,591.1,449.1,593.2,448.1z" class="st1"></path>
        <path d="M287.8,449.3l5.9,0.4c0.7,0,1.3,0.7,1.2,1.4c0,0,0,0.1,0,0.1c-2.9,16.4-4.3,32.9-4.1,49.6c0,1.5-1,2.7-2.5,2.9
		c-7,1.1-13.6,3.3-20,6.6c-0.8,0.4-1.7,0.5-2.5,0.3c-4.1-1-7.7-2.7-10.8-5.2l19.9-12.5c1.7-1.1,2.9-2.9,3.2-4.9L283,455
		C285.9,453.4,287.5,451.5,287.8,449.3z" class="st5"></path>
        <circle r="4.8" cy="454.3" cx="906.7" class="st2"></circle>
        <circle r="5.6" cy="461.8" cx="825.4" class="st1"></circle>
        <circle r="4.9" cy="472" cx="906.4" class="st2"></circle>
        <path d="M426.1,471.2l2.6,19.9c0.1,0.9-0.3,1.2-1.1,1.1c-8.5-1.2-16.8-0.8-25,1.3c-0.5,0.1-0.9,0.4-1.2,0.7l-4.9,5.7
		c-0.7,0.9-1.7,1.2-2.8,1.1c-27.2-2.9-43,8.8-47.4,35c-0.1,0.3-0.3,0.5-0.6,0.4c-0.2,0-0.3-0.2-0.4-0.4l-5.2-32.5L426.1,471.2z" class="st7"></path>
        <circle r="4.9" cy="489.8" cx="906.6" class="st2"></circle>
        <path d="M441,490.8c8.9,0.4,20.5-0.9,19.6,12.4c-0.2,2.7-1.6,4.3-4.3,4.6c-6.4,0.8-12.4,0.2-17.9-1.9
		C442.4,503.1,443.3,498.1,441,490.8z" class="st7"></path>
        <path d="M872.2,511.3l-1.1,16.9c-0.1,0.8-0.5,1.5-1.1,1.9l-6.9,4.3c-0.8,0.5-1.5,0.3-1.8-0.6
		c-2.3-5.5-7.1-9.4-14.3-11.8C857.2,519,865.7,515.5,872.2,511.3z" class="st7"></path>
        <path d="M358.7,662c-1.5,0-2.6-1.2-2.6-2.7c0-30.2,0.2-60.1,0.8-89.5c0.4-18.9-1.8-54.1,24.3-56.7
		c1.4-0.1,1.6,0.3,0.6,1.3c-17.9,17.1-7.1,43,16.9,44.5c0.9,0.1,1.7,0.8,1.6,1.8l-2.2,101c0,0.7-0.6,1.3-1.4,1.3c0,0,0,0,0,0
		L358.7,662z" class="st2"></path>
        <path d="M739.6,513.3l-24.1,50.5c-0.1,0.3-0.4,0.5-0.7,0.6c-0.3,0.1-0.5,0.2-0.7,0.3c-0.4,0.2-0.9,0-1.1-0.4
		c-0.1-0.3-0.1-0.6,0-0.8c7.7-12.5,9.9-26.5,6.5-41.9l3.3,1.6c0.8,0.4,1.5,0.3,2.2-0.1L739.6,513.3z" class="st7"></path>
        <path d="M774.3,519.1c-8.5-2-14.8,0.4-18.9,7.3c-7,11.6-12.5,22.9-16.7,33.9c-1,2.7-3.7,3.8-8,3.1
		c5-14.4,11.1-27.9,18.5-40.7C754.9,512.9,763.2,511.7,774.3,519.1z" class="st1"></path>
        <path d="M662.7,515c0.8,5.1,4.3,16.9-1,20.2c-7.7,4.9-15.5,9.5-23.3,13.9c-1.7,1-3.9,0.9-5.5-0.1l-24.1-15.2L662.7,515
		z" class="st5"></path>
        <path d="M242.8,515.8c-10.3,12.3-14.4,28.5-12.3,48.5l-7.1,2.9C222.2,554.2,221.4,512.5,242.8,515.8z" class="st1"></path>
        <path d="M242.8,515.8c4.6,0.8,8.7,2.6,12.3,5.3c0.7,0.5,0.9,1.2,0.5,2c-5.1,10.7-6.9,21.9-5.2,33.4l-19.9,7.8
		C228.4,544.3,232.5,528.1,242.8,515.8z" class="st6"></path>
        <path d="M409.3,541.6c-0.7-10.6-0.6-18.4-8.4-24.5C413.4,510.6,421.7,535.8,409.3,541.6z" class="st4"></path>
        <path d="M154.6,516.7c13.4,6,24.5,13.4,23.2,30.2C167.4,539,153.1,531.6,154.6,516.7z" class="st7"></path>
        <path d="M400.9,517.1c7.7,6,7.7,13.9,8.4,24.5C388,558.1,374,527.2,400.9,517.1z" class="st3"></path>
        <path d="M570.2,518.2l28.2,1.1c0,3.9-0.7,7.3-2,10.1c-16.4,4.9-19.6,22.3-4.8,31.6c7,4.4,14,9.8,20.8,16.2
		c-14.7-2.9-28.1-9.1-40.2-18.7c-5.1-4.1-8.3-8.5-9.5-13.2L570.2,518.2z" class="st4"></path>
        <path d="M774.3,519.1c7.4,1.6,15.1,4.7,23.1,9c-12.5,5.9-7.9,24.8,5.4,19.2c4.3-1.9,11.1-5.8,20.3-11.8
		c4.4-1.5,10.1-1.8,16.9-0.8c-8.9,10.2-16.1,21-21.6,32.4c-1.4,2.9-3.4,6.6-6.1,11.2c-7.7,13.4-4.3,21-23.9,21
		c-3.7,0-8.9-1.6-14-0.3c-0.9,0.2-1.4-0.1-1.5-1l-0.5-3.7c-0.2-12.6-5.8-19.9-16.6-21.9c-5.9-1.1-13,2.2-20,0.5
		c-4.7-1.1-7.3-5.1-5-9.6c4.3,0.6,6.9-0.4,8-3.1c4.2-11,9.7-22.2,16.7-33.9C759.5,519.5,765.8,517.1,774.3,519.1z" class="st4"></path>
        <path d="M706.2,519.2c3.6,16.5,4.4,30.1-9.7,41c-11.3,8.8-23.4,16.6-36.3,23.6c-1.9,1-4.2,0.4-5.4-1.3L643,565
		c-1-1.5-0.7-2.7,0.8-3.7l30.8-19.7c0.8-0.5,1.2-1.1,1.4-2c1.3-6.1,1.3-12.6-0.1-19.5C685.9,518.4,696,518.1,706.2,519.2z" class="st4"></path>
        <path d="M290.9,616.2c-0.2,0-0.5-0.1-0.6-0.4c-8.3-15.9-16-32.1-23.2-48.8c-6.5-15.2-7.5-33.7,6.7-44.7
		c0.7-0.5,1.4-0.6,2.1-0.3c9.1,3.7,16.8,9.5,18.6,19.8c2.6,15.6,5.2,36.8,14,50c4.7,7.1,8.4,14.8,11.2,23c0.3,1,0,1.5-1.1,1.5
		L290.9,616.2z" class="st2"></path>
        <path d="M797.3,528.1c7.2,5.1,15.7,7.5,25.7,7.4c-9.2,6-16,9.9-20.3,11.8C789.5,553,784.9,534,797.3,528.1z" class="st7"></path>
        <path d="M596.4,529.4l-0.5,8.5c0,0.9,0.3,1.6,1,2.2c8.6,7.2,17.8,13.5,27.7,18.7c0.7,0.4,1,1.3,0.6,2
		c-0.1,0.2-0.2,0.3-0.4,0.4c-4.6,4-8.7,9.3-12.5,15.9c-6.9-6.4-13.8-11.8-20.8-16.2C576.8,551.7,579.9,534.3,596.4,529.4z" class="st7"></path>
        <path d="M487.8,533.4c6.6,11.8,14.1,22.8,22.5,33c0.7,0.9,2,1,2.9,0.3c0,0,0,0,0.1-0.1l34.6-31.7
		c-0.3,9,2.4,17.4,8.1,25.5c0.6,0.9,0.4,1.4-0.7,1.5c-11.1,1.5-21.3,5.2-30.9,11c-0.7,0.5-1.6,0.7-2.4,0.7c-6.8,0-14.1-2.4-19.9-1.7
		c-23.7,2.9-20.7,32.9-3.5,42.6c0.3,0.2,0.4,0.6,0.2,0.9c-0.1,0.2-0.3,0.3-0.5,0.3l-27.9,0c-0.7,0-1.3-0.6-1.3-1.3
		c0-0.2,0-0.4,0.1-0.5c8.3-19.6,11-40,8-61.1c-0.1-0.8,0.2-1.5,0.7-2.1C482.2,546.4,485.5,540.6,487.8,533.4z" class="st7"></path>
        <path d="M839.9,534.7c3.2-0.6,6.6,0.7,10,3.8c1.3,1.2,1.4,3.2,0.2,4.5c-0.1,0.1-0.2,0.2-0.3,0.3
		c-12.1,10.3-21.1,22.9-27.1,37.6c-4.4,10.8-4.1,33.8-19,34.6c-13.2,0.7-26.5,0.7-39.8,0c-0.6,0-1.2-0.6-1.1-1.2
		c0-0.3,0.2-0.7,0.4-0.9c5.8-4.9,8.8-11.3,9-19.2l0.5,3.7c0.1,0.9,0.6,1.2,1.5,1c5.1-1.3,10.3,0.3,14,0.3c19.6,0,16.2-7.6,23.9-21
		c2.7-4.6,4.7-8.3,6.1-11.2C823.8,555.8,831,545,839.9,534.7z" class="st5"></path>
        <path d="M164.2,553c-28.4-10-50.2-4.9-65.1,15.2c-3.8,5-6.4,10.3-7.8,15.7l-10,19.4c-0.8-33.8,13.4-54.3,42.8-61.4
		C137.7,538.5,151.1,542.2,164.2,553z" class="st1"></path>
        <path d="M942.2,602l-9.8-19.5c-12.4-31-36.8-41-73.4-30.2C900.6,524.5,946.6,554.2,942.2,602z" class="st1"></path>
        <path d="M164.2,553c19.9,15,30.2,36.7,31,65c0.5,17.5,0.5,38.1,0.2,61.9c-0.2,13.1,5.9,23.6,18.2,31.5l14.5,16.7
		l10.4,12.3c1.6,1.8,3.8,2.9,6.2,2.9c12.9,0.1,25.5,0.1,37.8,0c14.9-0.1,13.4-6.9,18.2-17.7c162.3,0,324.5,0,486.8,0
		c13,0,20-4,26.4-14.6c11.3-10.1,14.5-19.5,14.4-35.5c-0.1-30.1-0.1-49.5,0.1-58c0.4-27.5,10.7-49.3,30.7-65.3
		c36.6-10.8,61-0.8,73.4,30.2c0.7,15.5,0.7,25.7,0.1,30.6c-7.9,64.6-13.3,107.1-16,127.4c-2.9,21.9-17.4,35.1-39.1,35.5
		c-19.6,0.4-39.3,0.4-58.9,0.3c-0.5-5.2-1.7-8.9,0-14.3c1.6-5.1,7-32.2-3.7-31.9c-3.6,0.1-9.8,1.9-18.4,5.6
		c-0.5,0.2-1.1,0.3-1.7,0.1l-19.7-5.6c-3.3-0.9-6.7,1-7.6,4.3c-0.2,0.6-0.3,1.2-0.2,1.9l1.2,38.5c-14.5-17.5-27.8-16.6-40,2.8
		c-8.2-0.8-14.4-1.2-18.6-1.2c-64.9,0-129.8,0-194.8-0.1c4.7-9.4-12.3-13.1-9.9,0.3c-113.7-0.4-227.4-0.4-341.2-0.1
		c-11.7,0-30.2,0.4-39.1-7c-15.4-12.9-15.8-26.3-19.1-49.8c-3.1-21.9-7.1-52.5-12.1-91.7c-2-15.5-2.7-30.2-2.3-44.1
		c1.5-5.4,4.1-10.6,7.8-15.7C114.1,548.1,135.8,543,164.2,553z M515.4,733.3c0-3-2.5-5.5-5.5-5.5l0,0c-3,0-5.5,2.5-5.5,5.5l0,0
		c0,3,2.5,5.5,5.5,5.5l0,0C512.9,738.8,515.4,736.4,515.4,733.3L515.4,733.3z M515.5,753.1c0-2.9-2.3-5.2-5.2-5.2c0,0,0,0,0,0
		c-2.9,0-5.2,2.3-5.2,5.2s2.3,5.2,5.2,5.2S515.5,755.9,515.5,753.1L515.5,753.1z" class="st6"></path>
        <path d="M435.4,608.3c-0.9,0.2-1.8-0.5-2-1.4c-0.1-0.3,0-0.6,0.1-0.9c4.8-13.6-7.3-37.7-13.4-49.7
		c-0.7-1.3-0.2-2.9,1.1-3.6c1-0.5,2.3-0.4,3.1,0.4c8.9,8.2,17.3,37.4,20.9,49.7c0.5,1.8-0.5,3.7-2.3,4.2c-0.1,0-0.3,0.1-0.4,0.1
		L435.4,608.3z" class="st2"></path>
        <path d="M456.1,585.4c-2.9-2.3-5-5.1-6.4-8.5l-8.1-19.9c-0.5-1.3-0.1-1.9,1.2-1.8l19.3,0.3c0.8,0,1.5,0.5,1.9,1.2
		c4.4,10,2,22-0.4,32.7c-0.3,1.2-0.9,1.4-1.8,0.6L456.1,585.4z" class="st7"></path>
        <path d="M250.4,556.5l23.6,55.7c1,2.4,0.2,3.5-2.3,3.5h-48.9c-1.7,0-3.1-1.4-3.1-3c0-0.2,0-0.5,0.1-0.7l4.5-18.9
		l13.7,3.2c0.7,0.2,1.4-0.3,1.6-1c0.1-0.3,0-0.7-0.2-1c-3.9-6-8.7-10.2-14.4-12.5l-1.6-14.6l7.1-2.9L250.4,556.5z" class="st5"></path>
        <path d="M647.2,586.6c1.6,2.1,1.1,5.2-1,6.7l-0.9,0.6c-7.3,5.4-16.6,5.3-20.6-0.2l-0.3-0.4c-4-5.5-1.4-14.3,6-19.7
		l0.9-0.6c2.2-1.6,5.2-1.1,6.8,1c0,0,0,0,0,0L647.2,586.6z" class="st3"></path>
        <path d="M211.2,572.4c1.7,10.3,0.8,20.7-2.6,31.2c-0.1,0.4-0.6,0.6-0.9,0.5c-0.2-0.1-0.4-0.3-0.5-0.5l-6.2-21.9
		C206.3,579.8,211.1,578.9,211.2,572.4z" class="st7"></path>
        <path d="M572.7,575.9l-38.8,7.5C545.8,574.5,558.7,572,572.7,575.9z" class="st1"></path>
        <path d="M572.7,575.9l36.6,16.1c1.4,0.6,2.5,1.8,3,3.2c6.8,19.4,29.9,18.8,42.7,6.6c4.7-4.4,22.7-3.4,29.2-3.3
		c12.9,0.2,9.3-9.2,10.8-17.4c10.9-0.5,21.1,0.2,30.3,2.3l-0.9,27.9c-0.1,3.2-1.8,4.8-5,4.9c-56.7,0.1-112.5,0.1-167.3-0.1
		c-4.8,0-9.5-0.3-14.3-0.8c-0.9-0.1-1.4-0.6-1.5-1.6l-2.6-30.3L572.7,575.9z" class="st2"></path>
        <path d="M725.4,583.5c-9.3-2.1-19.4-2.9-30.3-2.3c-1.3-1.2-1.9-2.6-1.7-4.2c0.1-0.8,0.5-1.3,1.3-1.3
		c9.5-0.8,18.5,0.6,27.1,4.3C724.1,580.9,725.3,582.1,725.4,583.5z" class="st1"></path>
        <path d="M224.9,581.8c5.7,2.3,10.5,6.5,14.4,12.5c0.4,0.6,0.2,1.4-0.4,1.8c-0.3,0.2-0.7,0.3-1,0.2l-13.7-3.2
		L224.9,581.8z" class="st6"></path>
        <path d="M932.4,582.5l9.8,19.5c0.4,5.3,0.3,10.8-0.4,16.7c-4.8,39.4-9.9,78.7-15.2,118c-3.1,23-7.7,49.1-38.1,47.3
		c-14.7-0.8-28.3,0.4-41,3.7l-26.6,3l-2.4-14.4c19.7,0.2,39.3,0.1,58.9-0.3c21.7-0.4,36.2-13.7,39.1-35.5
		c2.7-20.3,8.1-62.7,16-127.4C933.1,608.2,933.1,598,932.4,582.5z" class="st4"></path>
        <path d="M502.8,602.2c-5.6-4.3-9.6-16.1,0.5-18c0.7-0.1,1,0.1,1,0.8l-0.4,16.7c0,0.4-0.3,0.6-0.7,0.6
		C503,602.4,502.9,602.3,502.8,602.2z" class="st4"></path>
        <path d="M91.3,583.8c-0.5,13.9,0.3,28.6,2.3,44.1c5,39.3,9.1,69.9,12.1,91.7c3.3,23.5,3.7,36.9,19.1,49.8
		c8.9,7.5,27.4,7.1,39.1,7c113.8-0.3,227.5-0.3,341.2,0.1c3.5,3.4,6.8,3.3,9.9-0.3c65,0.1,129.9,0.1,194.8,0.1
		c4.2,0,10.4,0.4,18.6,1.2c-0.8,2.7-2.7,4.5-5.5,5.6c-0.7,0.3-1.3,0.9-1.6,1.6c-1.4,4.3-3.5,6.1-8.3,6.1c-96.6,1-193.3,0-290,0.9
		c-11.3,0.1-16.9,3.2-24.6,10.5l-208.1-0.6c-0.8,0-1.6-0.4-2.1-1c-8.3-9.7-12.3-16.9-26.9-16.6c-10.4,0.2-20.8,0.2-31.2,0
		c-18.5-0.5-29.3-19-31.1-35.9c-4.2-38.7-13.6-94.9-17.8-145L91.3,583.8z" class="st4"></path>
        <path d="M754.1,585.5c0-0.2,0.1-0.3,0.3-0.3c0,0,0,0,0,0h0c2.6-0.2,5,3.1,5.4,7.5c0,0,0,0,0,0l0,0.6
		c0.3,4.3-1.5,8-4.2,8.2c0,0,0,0,0,0h0c-0.2,0-0.3-0.1-0.3-0.3c0,0,0,0,0,0L754.1,585.5z" class="st4"></path>
        <path d="M344.4,594.2l-16.8,3.8l-2-7.2c-0.2-0.8,0.2-1.6,1-1.8c0.1,0,0.1,0,0.2,0l15.4-2.7c1-0.2,1.6,0.2,1.7,1.3
		L344.4,594.2z" class="st4"></path>
        <path d="M736.6,587.2l8.9-0.7c1.1-0.1,2,0.7,2.1,1.8c0,0,0,0.1,0,0.1l0.8,18.3c0,0.8-0.4,1.6-1.2,1.9l-11.6,5.3
		c-1,0.5-2.2,0-2.6-1c-0.1-0.3-0.2-0.7-0.2-1l1.9-22.9C734.9,588,735.6,587.2,736.6,587.2z" class="st1"></path>
        <path d="M510.7,606.8v-18.6c0-0.6,0.5-1.2,1.2-1.2l0,0h11.6c0.6,0,1.1,0.5,1.2,1.1l1.4,24.5c0,0.6-0.4,1.2-1.1,1.3
		c-0.2,0-0.4,0-0.6-0.1l-13-5.9C510.9,607.7,510.7,607.3,510.7,606.8z" class="st1"></path>
        <path d="M344.4,594.2l-0.6,14c-0.1,1.9-1.7,3.4-3.5,3.3c-0.6,0-1.2-0.2-1.7-0.5c-6.1-3.8-9.7-8.1-10.9-12.9
		L344.4,594.2z" class="st1"></path>
        <path d="M813.1,628.6c-3.3,4.7-6.6,7-9.8,7c-122.6,0.3-245.2,0.3-367.8,0c-4.5,0-9.4-0.6-14.5-1.7
		c-2.7-4.4-2.3-6.6,1.2-6.6c127.5,0,254.9,0,382.4,0C807.9,627.3,810.7,627.8,813.1,628.6z" class="st1"></path>
        <path d="M334.8,627.4l-7.2,6.7c-0.6,0.5-1.3,0.8-2.1,0.9c-34.7,2.6-71.4,1-106.2,0.3c-3.5-0.1-5.8-2.4-6.9-6.9
		L334.8,627.4z" class="st1"></path>
        <path d="M334.8,627.4l6.6,0c0.8,0,1.3,0.4,1.3,1.3c0,10.1,0,20.3,0,30.6c0,7.1,1.9,10.6,7.5,14.2
		c0.7,0.5,1.1,1.2,1.1,2.1c-0.5,8.9,1.8,16.8,6.9,23.7c0.1,0.1,0.1,0.3,0,0.3c0,0-0.1,0-0.1,0c-45.1-0.1-88.6-0.2-130.6-0.2
		c-9.5,0-17.9-3.9-18.9-13.6c-1.5-13.8-1.4-32,0.3-54.7c0-0.8,0.4-1.4,1.1-1.8c0.9-0.6,1.8-0.9,2.6-1c1.1,4.5,3.4,6.9,6.9,6.9
		c34.9,0.7,71.5,2.3,106.2-0.3c0.8-0.1,1.5-0.4,2.1-0.9L334.8,627.4z" class="st4"></path>
        <path d="M422.1,627.3c-3.5,0-3.9,2.2-1.2,6.6c-0.6,15.1-0.9,30.3-0.9,45.4c0,12.8-5.1,13.5-13.9,19.9l-15.2-0.3
		c-1.4,0-1.6-0.5-0.7-1.5c5.4-5.7,8.9-12.4,10.5-20.1c0.2-0.9,0.8-1.6,1.6-2c5.3-2.4,8.2-7.4,8.4-15c0.4-10.1,0.5-20.3,0.2-30.4
		c0-0.8,0.5-1.5,1.2-1.9C414.9,627,418.2,626.7,422.1,627.3z" class="st7"></path>
        <path d="M813.1,628.6c1.9,0.8,2.9,2.5,2.9,4.9c0.2,25.7,0.2,41.9,0,48.7c-0.4,16.1-11.3,17.1-25.1,17.1
		c-128.2,0-256.4,0-384.8,0c8.8-6.4,13.9-7.1,13.9-19.9c0-15.2,0.3-30.3,0.9-45.4c5.1,1.1,10,1.7,14.5,1.7
		c122.6,0.3,245.2,0.3,367.8,0C806.5,635.6,809.8,633.3,813.1,628.6z" class="st4"></path>
        <path d="M386.3,681.3c-7.3,1.4-14.7,1.3-22.2-0.2c-1-3.1-1-6.2-0.1-9.4c0.2-0.9,0.8-1.3,1.7-1.2l21.5,1.4
		c0.7,0,1.1,0.4,1.2,1.2C388.8,676.5,388.1,679.2,386.3,681.3z" class="st6"></path>
        <path d="M386.3,681.3c-4.8,12.4-19.8,18.2-22.2-0.2C371.6,682.6,379,682.7,386.3,681.3z" class="st1"></path>
        <path d="M813.8,711c-6.4,10.6-13.4,14.6-26.4,14.6c-162.3,0-324.5,0-486.8,0c-6.4-1.9-13.2-2.7-20.3-2.5
		c-15.3,0.4-31.9,0.4-49.8-0.1c-0.8,0-1.6,0.6-1.6,1.5c0,0.2,0,0.4,0.1,0.6c0.7,1.6,0.3,2.6-1.1,3l-14.5-16.7L813.8,711z" class="st2"></path>
        <path d="M300.6,725.6c-4.7,10.8-3.3,17.6-18.2,17.7c-12.3,0.1-24.9,0.1-37.8,0c-2.4,0-4.7-1.1-6.2-2.9L228,728.2
		c1.4-0.4,1.8-1.4,1.1-3c-0.3-0.8,0.1-1.7,0.8-2c0.2-0.1,0.4-0.1,0.6-0.1c17.9,0.5,34.5,0.5,49.8,0.1
		C287.5,722.9,294.2,723.8,300.6,725.6z" class="st5"></path>
        <circle r="5.5" cy="733.3" cx="509.9" class="st4"></circle>
        <path d="M752,800.8c-3.2-3.2-5.3-7-6.4-11.4c-0.3-1.1,0.1-1.3,1-0.7c6.2,3.8,14.1,10.6,21.6,4.7
		c13.1-10.4,16.8-24.2,11.2-41.6c-0.6-1.8-0.5-4.2,0.3-7.4c0.3-1.1,0.8-1.2,1.6-0.5l3.3,3.2c0.6,0.6,1.3,0.8,2.1,0.7
		c4-0.5,8-0.1,11.8,1c0.6,0.2,1.2,0.1,1.8-0.2l6.4-3.6c1-0.5,2.2-0.2,2.7,0.8c0.3,0.5,0.3,1.1,0.1,1.7c-7.9,21.2-0.5,46.6,0.5,69.8
		c0.1,3.3-2.4,6.1-5.7,6.2c-0.1,0-0.2,0-0.3,0H749c-2.1,0-3.9-1.7-3.9-3.8c-0.1-6.5,2.2-11.9,6.9-16.3
		C752.7,802.6,752.7,801.5,752,800.8C752.1,800.8,752.1,800.8,752,800.8z" class="st2"></path>
        <circle r="5.2" cy="753.1" cx="510.3" class="st2"></circle>
        <path d="M768.3,774.8l-6.8,8c-0.6,0.7-1.5,0.8-2.2,0.3c-5.5-3.7-18.8-15.7-24.4-5c-1,1.9-1.4,3.4-1.2,4.3
		c4.9,25.3-25,19.5-39.6,19.6c-98.6,0.8-197.2,0.9-295.7,0.3c7.7-7.3,13.3-10.4,24.6-10.5c96.7-0.8,193.4,0.1,290-0.9
		c4.8,0,6.9-1.8,8.3-6.1c0.2-0.7,0.8-1.3,1.6-1.6c2.9-1.1,4.7-3,5.5-5.6C740.5,758.2,753.8,757.2,768.3,774.8z" class="st2"></path>
        <path d="M515,776.3c-3.1,3.6-6.4,3.7-9.9,0.3C502.7,763.2,519.7,766.8,515,776.3z" class="st2"></path>
        <path d="M847.5,787.7l-7.5,12.1c-0.4,0.7-1,1.1-1.8,1.1l-12.7,1.4c-1.9,0.2-3.5-1.2-3.7-3c0,0,0,0,0,0l-0.8-8.6
		L847.5,787.7z" class="st2"></path>
        <path d="M116.6,808.7l0.1,19.5c0,3,2.5,5.4,5.5,5.4c196.7,0,392.3,0,586.8,0c24.1,0,55.9,2.6,84.1,1.6
		c44.5-1.6,73.2-1.8,110.4-1.6c1.7,0,3.2-1.4,3.2-3.1l0.5-22.3c5.2,0.3,110.6,7.5,87.7,25.9c-3.6,2.9-9.9,5.1-18.8,6.5
		c-33,5.4-66.2,8.6-99.7,9.8c-43.1,1.5-112.3,1.6-207.7,0.4c-86.1-1.1-220.6,0.5-330.9,0c-25.9-0.1-324,7.4-313.2-23.6
		C28.9,815.1,102.5,809.5,116.6,808.7z" class="st4"></path>
        <path d="M131.2,809.3l34.9-0.1c0.9,0,1.6,0.7,1.6,1.6l0.1,15.9c0,0.9-0.7,1.6-1.6,1.6l-34.9,0.1
		c-0.9,0-1.6-0.7-1.6-1.6l-0.1-15.9C129.5,810,130.3,809.3,131.2,809.3z" class="st2"></path>
        <path d="M856.5,809.3l37-0.3c0.4,0,0.7,0.3,0.7,0.7l0.2,18.3c0,0.4-0.3,0.7-0.7,0.7l-37,0.3c-0.4,0-0.7-0.3-0.7-0.7
		l-0.2-18.3C855.9,809.6,856.2,809.3,856.5,809.3z" class="st2"></path>
</g>
</svg>
